<svg xmlns="http://www.w3.org/2000/svg" viewBox="0 0 192 192" fill="none">
  <defs>
    <linearGradient id="bg" x1="24" y1="18" x2="168" y2="174" gradientUnits="userSpaceOnUse">
      <stop stop-color="#10B981"/>
      <stop offset="1" stop-color="#059669"/>
    </linearGradient>
  </defs>
  <rect width="192" height="192" rx="42" fill="url(#bg)"/>
  <path
    d="M58.5 93c0-16.6 13.4-30 30-30 6.8 0 13.1 2.3 18.2 6.2 5.1-3.9 11.4-6.2 18.2-6.2 16.6 0 30 13.4 30 30 0 3.3-.5 6.5-1.5 9.4H60c-1-2.9-1.5-6.1-1.5-9.4Z"
    fill="#FFFFFF"
  />
  <path
    d="M51 108h90v9c0 12.4-10.1 22.5-22.5 22.5h-45C61.1 139.5 51 129.4 51 117v-9Z"
    fill="#FFFFFF"
  />
  <path
    d="M73.5 139.5h45v13.5c0 4.1-3.4 7.5-7.5 7.5H81c-4.1 0-7.5-3.4-7.5-7.5v-13.5Z"
    fill="#ECFDF5"
  />
</svg>
