<svg xmlns="http://www.w3.org/2000/svg" viewBox="0 0 512 512" fill="none">
  <defs>
    <linearGradient id="bg" x1="64" y1="48" x2="448" y2="464" gradientUnits="userSpaceOnUse">
      <stop stop-color="#10B981"/>
      <stop offset="1" stop-color="#059669"/>
    </linearGradient>
  </defs>
  <rect width="512" height="512" rx="112" fill="url(#bg)"/>
  <path
    d="M156 248c0-44.18 35.82-80 80-80 18.2 0 35 6.1 48.4 16.4C297.8 174.1 314.6 168 332.8 168c44.2 0 80 35.8 80 80 0 8.8-1.4 17.2-4 25H160c-2.6-7.8-4-16.2-4-25Z"
    fill="#FFFFFF"
  />
  <path
    d="M136 288h240v24c0 33.1-26.9 60-60 60H196c-33.1 0-60-26.9-60-60v-24Z"
    fill="#FFFFFF"
  />
  <path
    d="M196 372h120v36c0 11-9 20-20 20H216c-11 0-20-9-20-20v-36Z"
    fill="#ECFDF5"
  />
</svg>
