<svg xmlns="http://www.w3.org/2000/svg" viewBox="0 0 180 180" fill="none">
  <defs>
    <linearGradient id="bg" x1="22" y1="16" x2="158" y2="164" gradientUnits="userSpaceOnUse">
      <stop stop-color="#10B981"/>
      <stop offset="1" stop-color="#059669"/>
    </linearGradient>
  </defs>
  <rect width="180" height="180" rx="40" fill="url(#bg)"/>
  <path
    d="M55 87.5c0-15.5 12.5-28 28-28 6.4 0 12.3 2.1 17 5.8 4.7-3.7 10.6-5.8 17-5.8 15.5 0 28 12.5 28 28 0 3.1-.5 6.1-1.4 8.8H56.4c-.9-2.7-1.4-5.7-1.4-8.8Z"
    fill="#FFFFFF"
  />
  <path
    d="M48 101.25h84v8.44c0 11.6-9.4 21-21 21H69c-11.6 0-21-9.4-21-21v-8.44Z"
    fill="#FFFFFF"
  />
  <path
    d="M69 130.5h42v12.66c0 3.9-3.1 7-7 7H76c-3.9 0-7-3.1-7-7V130.5Z"
    fill="#ECFDF5"
  />
</svg>
